<svg width="28" height="28" viewBox="0 0 28 28" fill="none" xmlns="http://www.w3.org/2000/svg">
<path d="M23.8842 17.3313L18.7316 15.0224L18.7174 15.0159C18.4499 14.9015 18.1581 14.8555 17.8683 14.8823C17.5786 14.909 17.3002 15.0076 17.0581 15.169C17.0296 15.1878 17.0022 15.2083 16.9761 15.2302L14.3139 17.4998C12.6274 16.6806 10.8861 14.9524 10.0669 13.2877L12.3397 10.5851C12.3616 10.5577 12.3824 10.5304 12.402 10.5009C12.56 10.2595 12.6559 9.98279 12.681 9.69541C12.7062 9.40802 12.66 9.11887 12.5464 8.85368V8.84056L10.2309 3.67915C10.0808 3.33272 9.82268 3.04414 9.49506 2.85648C9.16744 2.66882 8.78791 2.59214 8.41313 2.6379C6.93107 2.83293 5.57067 3.56078 4.58603 4.68551C3.60139 5.81024 3.05983 7.25494 3.06251 8.74978C3.06251 17.4342 10.1281 24.4998 18.8125 24.4998C20.3073 24.5025 21.752 23.9609 22.8768 22.9763C24.0015 21.9916 24.7294 20.6312 24.9244 19.1492C24.9702 18.7745 24.8937 18.3951 24.7063 18.0675C24.5188 17.7399 24.2305 17.4816 23.8842 17.3313ZM18.8125 22.7498C15.1007 22.7457 11.5421 21.2694 8.91749 18.6448C6.29286 16.0202 4.81656 12.4616 4.81251 8.74978C4.8084 7.68172 5.19319 6.64868 5.89503 5.84358C6.59688 5.03849 7.56778 4.51638 8.62642 4.37478C8.62599 4.37914 8.62599 4.38354 8.62642 4.3879L10.9233 9.52853L8.66251 12.2345C8.63956 12.2609 8.61872 12.289 8.60017 12.3187C8.43557 12.5713 8.33902 12.8621 8.31985 13.1629C8.30069 13.4638 8.35957 13.7645 8.49079 14.0359C9.48173 16.0626 11.5238 18.0893 13.5724 19.0792C13.8458 19.2091 14.1482 19.266 14.4501 19.2441C14.7521 19.2223 15.0432 19.1225 15.295 18.9545C15.3231 18.9355 15.3501 18.9151 15.3759 18.8932L18.0349 16.6248L23.1755 18.9271C23.1755 18.9271 23.1842 18.9271 23.1875 18.9271C23.0476 19.9873 22.5263 20.9601 21.7211 21.6637C20.9158 22.3673 19.8818 22.7534 18.8125 22.7498Z" fill="#7D53EB"/>
</svg>
